<svg width="0" height="0" class="hidden">
  <symbol version="1.1" id="earth" xmlns="http://www.w3.org/2000/svg" xmlns:xlink="http://www.w3.org/1999/xlink" xml:space="preserve" viewBox="0 0 512 512">
    <g>
      <g>
        <g>
          <path d="M147.296,54.873c3.819,8.107,7.616,17.621,11.605,27.669c11.029,27.883,24.789,62.592,43.84,69.888
				c5.653,2.176,11.541,3.029,18.389,4.011c9.685,1.408,20.672,3.008,32.405,8.747c1.493,0.725,2.88,1.621,4.16,2.667l5.483,4.544
				c1.557,1.259,2.88,2.752,3.989,4.373c6.827,10.005,8.277,20.672,9.301,28.437c0.107,0.789,0.192,1.557,0.277,2.283
				c12.693,9.707,17.579,25.813,11.627,40.512c-7.744,19.008-0.64,40.661,18.517,56.533c25.259,20.928,16.448,55.36,5.12,80.832
				c5.504-3.627,11.136-7.936,17.237-13.227c9.237-7.915,15.211-16.469,21.547-25.536c6.955-9.963,14.699-21.056,26.88-31.189
				c0.491-1.323,1.024-2.731,1.579-4.16c2.603-6.848,9.088-23.872,9.216-31.616c-13.504-8.363-21.547-22.059-28.715-34.261
				c-4.096-6.955-7.979-13.589-12.544-19.008c-6.08-1.685-11.157-6.016-13.76-11.883c-1.941-4.395-2.325-9.216-1.216-13.717
				l-3.989-1.984c-3.755-1.835-6.869-4.736-9.003-8.363c-10.432-17.899-23.872-33.664-39.936-46.827
				c-3.307-2.709-5.717-6.357-6.933-10.453c-3.093-10.453-0.917-21.931,5.803-30.656c26.645-34.645,50.368-51.307,93.995-65.92
				l0.043,0.107c2.069-1.387,4.587-2.987,7.381-4.715C342.923,11.651,300.811,0.003,255.989,0.003
				c-42.283,0-82.091,10.475-117.269,28.693c4.096,12.416,6.763,20.715,8.341,26.283L147.296,54.873z"></path>
          <path d="M418.411,58.279c-14.251,8.341-25.045,14.677-27.563,16.213c-1.557,1.045-3.264,1.899-5.099,2.539
				c-32.32,10.816-48.917,21.312-67.691,43.883c13.312,12.608,24.939,26.795,34.667,42.389l19.371,9.557
				c5.589,2.752,9.685,7.787,11.243,13.824c1.259,4.949,0.704,10.133-1.515,14.656c5.952,7.467,10.539,15.317,14.72,22.443
				c5.035,8.576,10.24,17.451,14.869,19.84c32.768,17.024,16.469,59.819,7.701,82.816c-1.195,3.136-2.304,6.016-3.136,8.448
				c-1.387,4.075-4.523,8.363-7.957,10.923c-9.536,7.04-15.147,15.061-22.251,25.216c-7.211,10.325-15.403,22.037-28.693,33.472
				c-18.709,16.128-34.944,25.941-54.251,32.768c-3.712,1.323-7.488,1.963-11.243,1.963c-9.685,0-19.051-4.245-25.621-12.032
				c-9.152-10.859-10.603-25.813-3.733-38.101c23.381-41.835,17.515-51.605,17.451-51.669
				c-31.509-26.112-44.096-64.256-33.195-98.901c-9.664-7.851-11.285-20.011-12.309-27.648c-0.341-2.667-0.811-6.08-1.493-8.299
				c-5.141-2.069-10.795-2.901-17.707-3.904c-8.171-1.195-17.408-2.517-27.499-6.4c-36.565-14.016-54.123-58.368-68.245-94.016
				c-3.627-9.109-7.04-17.771-10.517-25.131c-0.491-1.024-0.875-2.069-1.195-3.115c-0.512-1.6-2.752-8.363-5.888-17.749
				C40.021,99.047,0,172.839,0,255.997c0,141.163,114.837,256,256,256s256-114.837,256-256
				C512,176.445,475.52,105.277,418.411,58.279z"></path>
        </g>
      </g>
    </g>
  </symbol>
</svg>