<svg width="0" height="0" class="hidden">
  <symbol version="1.1" id="fast-delivery" xmlns="http://www.w3.org/2000/svg" xmlns:xlink="http://www.w3.org/1999/xlink" xml:space="preserve" viewBox="0 0 291.329 291.329">
    <g>
      <path d="M276.329,49.759H123.324c-0.549,1.729-1.207,3.409-1.952,5.041c19.993,4.577,34.957,22.496,34.957,43.856
		c0,20.278-13.485,37.46-31.956,43.065c2.827,5.883,4.413,12.471,4.413,19.423c0,24.813-20.187,45-45,45H58.035v49.016
		c0,8.284,6.716,15,15,15h203.294c8.284,0,15-6.716,15-15V64.759C291.329,56.475,284.613,49.759,276.329,49.759z M186.112,237.793
		c-8.284,0-15-6.716-15-15c0-8.284,6.716-15,15-15c8.284,0,15,6.716,15,15C201.112,231.077,194.396,237.793,186.112,237.793z
		 M246.112,237.793c-8.284,0-15-6.716-15-15c0-8.284,6.716-15,15-15c8.284,0,15,6.716,15,15
		C261.112,231.077,254.396,237.793,246.112,237.793z"></path>
      <path d="M126.329,98.657c0-8.284-6.716-15-15-15H15c-8.284,0-15,6.716-15,15c0,8.284,6.716,15,15,15h96.329
		C119.613,113.657,126.329,106.941,126.329,98.657z"></path>
      <path d="M30.098,51.168L30.098,51.168h50.329l0,0c8.305,0,15-6.735,15-15c0-8.293-6.724-15-15-15l0,0H30.098l0,0
		c-8.284,0-15,6.716-15,15C15.098,44.456,21.816,51.168,30.098,51.168z"></path>
      <path d="M83.786,176.145c8.283,0,15-6.714,15-15c0-8.284-6.716-15-15-15l0,0H49.262h0c-8.282,0-15,6.713-15,15
		c0,8.285,6.716,15,15,15h0H83.786L83.786,176.145z"></path>
    </g>
  </symbol>
</svg>