<svg width="0" height="0" class="hidden">
  <symbol id="layered-waves" xmlns="http://www.w3.org/2000/svg" xmlns:xlink="http://www.w3.org/1999/xlink" version="1.1" viewBox="0 0 900 200">
  
    <path d="M0 244L25 227.7C50 211.3 100 178.7 150 166.7C200 154.7 250 163.3 300 183.8C350 204.3 400 236.7 450 241.3C500 246 550 223 600 200C650 177 700 154 750 151C800 148 850 165 875 173.5L900 182L900 0L875 0C850 0 800 0 750 0C700 0 650 0 600 0C550 0 500 0 450 0C400 0 350 0 300 0C250 0 200 0 150 0C100 0 50 0 25 0L0 0Z" fill="#d3ca99"></path>
    <path d="M0 89L25 101.7C50 114.3 100 139.7 150 149.2C200 158.7 250 152.3 300 149.2C350 146 400 146 450 135C500 124 550 102 600 104.7C650 107.3 700 134.7 750 153.3C800 172 850 182 875 187L900 192L900 0L875 0C850 0 800 0 750 0C700 0 650 0 600 0C550 0 500 0 450 0C400 0 350 0 300 0C250 0 200 0 150 0C100 0 50 0 25 0L0 0Z" fill="#e6dca6"></path>
    <path d="M0 23L25 20.5C50 18 100 13 150 14C200 15 250 22 300 43.3C350 64.7 400 100.3 450 97.2C500 94 550 52 600 36.5C650 21 700 32 750 33C800 34 850 25 875 20.5L900 16L900 0L875 0C850 0 800 0 750 0C700 0 650 0 600 0C550 0 500 0 450 0C400 0 350 0 300 0C250 0 200 0 150 0C100 0 50 0 25 0L0 0Z" fill="#FFF8D6"></path>
  </symbol>
</svg>